<svg xmlns="http://www.w3.org/2000/svg" xmlns:xlink="http://www.w3.org/1999/xlink" width="1000" zoomAndPan="magnify" viewBox="0 0 750 749.999995" height="1000" preserveAspectRatio="xMidYMid meet" version="1.0"><defs><clipPath id="045b3af102"><path d="M 120 152 L 613 152 L 613 583 L 120 583 Z M 120 152 " clip-rule="nonzero"/></clipPath><clipPath id="fa53007e08"><path d="M -33.007812 424.960938 L 430.5 -38.546875 L 780.519531 311.472656 L 317.007812 774.980469 Z M -33.007812 424.960938 " clip-rule="nonzero"/></clipPath><clipPath id="31110f9320"><path d="M -33.007812 424.960938 L 430.5 -38.546875 L 780.519531 311.472656 L 317.007812 774.980469 Z M -33.007812 424.960938 " clip-rule="nonzero"/></clipPath><clipPath id="a4be2f62ae"><path d="M 115 147 L 621 147 L 621 588 L 115 588 Z M 115 147 " clip-rule="nonzero"/></clipPath><clipPath id="6380777b62"><path d="M -33.007812 424.960938 L 430.5 -38.546875 L 780.519531 311.472656 L 317.007812 774.980469 Z M -33.007812 424.960938 " clip-rule="nonzero"/></clipPath><clipPath id="cdcc845550"><path d="M -33.007812 424.960938 L 430.5 -38.546875 L 780.519531 311.472656 L 317.007812 774.980469 Z M -33.007812 424.960938 " clip-rule="nonzero"/></clipPath></defs><g clip-path="url(#045b3af102)"><g clip-path="url(#fa53007e08)"><g clip-path="url(#31110f9320)"><path fill="#000000" d="M 161.660156 582.058594 L 133.066406 566.730469 L 120.507812 548.953125 L 253.257812 441.09375 L 346.816406 357.644531 L 404.546875 289.253906 L 437.867188 241.246094 L 451.296875 246.519531 L 453.148438 270.222656 L 495.113281 244.128906 L 578.394531 152.898438 L 598.511719 167.25 L 570.894531 203.023438 L 596.390625 193.074219 L 612.539062 209.546875 L 544.042969 252.058594 L 440.320312 346.65625 L 348.667969 426.027344 L 397.269531 436.789062 L 391.453125 459.894531 L 306.269531 480.71875 L 239.347656 521.984375 L 172.808594 577.332031 L 161.664062 582.0625 Z M 161.660156 582.058594 " fill-opacity="1" fill-rule="nonzero"/></g></g></g><g clip-path="url(#a4be2f62ae)"><g clip-path="url(#6380777b62)"><g clip-path="url(#cdcc845550)"><path fill="#000000" d="M 575.46875 147.511719 C 573.351562 148.050781 568.363281 153.082031 564.378906 158.695312 C 551.132812 177.347656 521.453125 210.710938 504.945312 225.5 C 495.984375 233.527344 488.269531 240.910156 487.804688 241.90625 C 486.761719 244.140625 461.539062 260.222656 458.519531 260.578125 C 457.3125 260.722656 456.03125 256.695312 455.675781 251.632812 C 455.039062 242.652344 454.816406 242.335938 446.238281 238.410156 C 434.050781 232.828125 430.867188 234.09375 424.851562 246.890625 C 412.511719 273.128906 390.105469 303.296875 358.441406 336.304688 C 317.808594 378.660156 296.484375 398.601562 277.214844 412.273438 C 270.371094 417.128906 263.296875 422.757812 261.488281 424.785156 C 259.679688 426.816406 254.820312 431.128906 250.691406 434.375 C 246.5625 437.617188 239.277344 443.621094 234.5 447.710938 C 208.003906 470.398438 172.578125 499.351562 147.054688 519.179688 C 131.128906 531.554688 117.183594 543.632812 116.070312 546.019531 C 113.410156 551.722656 118.785156 559.753906 132.269531 570.226562 C 143.09375 578.628906 160.828125 587.773438 164.953125 587.078125 C 170.0625 586.21875 187.226562 574.710938 198.308594 564.714844 C 204.675781 558.972656 218.414062 547.441406 228.84375 539.09375 C 287.335938 492.265625 336.972656 468.449219 379.125 466.984375 C 392.484375 466.523438 395.929688 465.667969 397.433594 462.449219 C 400.316406 456.269531 401.457031 440.753906 399.390625 435.847656 C 397.628906 431.660156 396.828125 431.324219 385.082031 429.835938 C 366.136719 427.4375 358.441406 425.117188 359.792969 422.214844 C 360.414062 420.886719 367.519531 414.460938 375.582031 407.933594 C 383.648438 401.40625 391.738281 394.414062 393.558594 392.390625 C 395.378906 390.367188 402.445312 384.261719 409.257812 378.820312 C 425.652344 365.726562 459.734375 335.417969 486.304688 310.304688 C 508.90625 288.9375 536.726562 265.117188 552.386719 253.714844 C 564.164062 245.144531 602.492188 221.652344 612.605469 216.808594 L 620.238281 213.152344 L 618.488281 207.828125 C 616.65625 202.25 604.734375 190.058594 598.082031 186.953125 C 595.945312 185.957031 592.09375 186.277344 589.515625 187.660156 C 586.386719 189.34375 585.578125 189.34375 587.074219 187.65625 C 588.304688 186.269531 592.457031 180.910156 596.304688 175.746094 C 602.539062 167.378906 603.132812 165.894531 601.753906 162.105469 C 599.71875 156.511719 580.984375 146.109375 575.46875 147.511719 Z M 589.679688 165.109375 C 589.570312 166.6875 583.769531 174.015625 576.792969 181.394531 C 562.804688 196.183594 556.671875 206.746094 560.042969 210.242188 C 564.394531 214.746094 571.484375 214.128906 580.355469 208.46875 C 595.921875 198.539062 599.597656 197.832031 603.5625 204.023438 C 605.882812 207.636719 600.855469 211.9375 582.9375 221.675781 C 552.804688 238.050781 520.933594 263.394531 471.953125 309.921875 C 456.152344 324.933594 433.859375 345.066406 422.410156 354.664062 C 410.960938 364.261719 394.113281 378.492188 384.964844 386.292969 C 375.820312 394.089844 362.460938 405.429688 355.28125 411.492188 C 336.132812 427.652344 338.023438 430.289062 374.605469 438.492188 C 385.679688 440.976562 388.574219 442.203125 389.875 444.953125 C 392.6875 450.902344 388.433594 456.390625 380.816406 456.644531 C 363.757812 457.210938 342.839844 461.84375 324.136719 469.203125 C 286.484375 484.011719 263.496094 498.648438 214.273438 539.160156 C 193.964844 555.871094 174.121094 571.058594 170.171875 572.90625 C 163.292969 576.125 162.480469 576.023438 150.945312 570.492188 C 138.578125 564.558594 127.910156 554.679688 128.273438 549.503906 C 128.375 548.050781 144.738281 534.101562 164.632812 518.507812 C 184.53125 502.914062 214.09375 478.800781 230.328125 464.921875 C 246.5625 451.042969 269.257812 432.324219 280.753906 423.328125 C 307.558594 402.351562 322.207031 388.949219 349.574219 360.375 C 394.414062 313.554688 405.941406 299.324219 427.347656 264.351562 C 434.699219 252.34375 438.472656 247.625 440.613281 247.777344 C 444.667969 248.0625 445 252.898438 441.484375 260.515625 C 438.707031 266.535156 439.503906 273.84375 443.121094 275.53125 C 450.628906 279.035156 474.910156 268.167969 483.640625 257.394531 C 485.511719 255.085938 488.652344 252.511719 490.617188 251.679688 C 494.425781 250.066406 512.769531 233.792969 522.996094 222.960938 C 539.234375 205.761719 563.078125 178.625 569.253906 170.308594 C 573.039062 165.214844 577.367188 160.449219 578.875 159.714844 C 582.597656 157.90625 589.929688 161.566406 589.679688 165.113281 Z M 527.371094 233.671875 C 520.285156 240.949219 519.730469 244.125 526.238281 240.140625 C 532.308594 236.425781 535.980469 231.105469 533.324219 229.867188 C 532.472656 229.46875 529.792969 231.179688 527.371094 233.671875 Z M 505 253.5 C 492.421875 261.792969 483.054688 270 480.902344 274.609375 C 479.15625 278.351562 481.152344 279.832031 485.300781 277.871094 C 489.347656 275.960938 515.398438 250.511719 515.664062 248.210938 C 515.78125 247.175781 510.984375 249.554688 505 253.5 Z M 439.539062 304.222656 C 432.988281 307.632812 424.289062 312.148438 420.207031 314.257812 C 410.886719 319.078125 400.078125 329.417969 399.769531 333.8125 C 399.425781 338.738281 404.722656 336.761719 411.125 329.574219 C 416.742188 323.269531 418.3125 323 420.179688 328.03125 C 421.121094 330.5625 422.148438 330.757812 425.363281 329.007812 C 430.765625 326.066406 431.257812 324.472656 427.820312 321.003906 C 424.996094 318.148438 425.136719 317.949219 433.027344 313.574219 C 440.695312 309.328125 449.492188 306.101562 448.683594 307.835938 C 448.480469 308.269531 444.167969 313.683594 439.097656 319.863281 C 429.441406 331.636719 421.71875 337.8125 406.484375 345.9375 C 401.453125 348.621094 392.871094 354.488281 387.414062 358.976562 C 381.957031 363.464844 374.253906 368.863281 370.300781 370.976562 C 363.277344 374.726562 359.71875 378.695312 362.304688 379.894531 C 363.011719 380.222656 367.824219 377.257812 372.992188 373.304688 C 378.164062 369.351562 388.234375 363.003906 395.371094 359.199219 C 402.507812 355.398438 413.101562 349.332031 418.910156 345.722656 C 430.199219 338.703125 459.921875 308.726562 458.648438 305.640625 C 458.230469 304.621094 456.4375 302.492188 454.667969 300.90625 C 452 298.523438 449.398438 299.09375 439.539062 304.222656 Z M 323.132812 403.929688 C 315.863281 407.113281 302.085938 416.035156 301.066406 418.21875 C 300.597656 419.222656 297.15625 422.429688 293.417969 425.34375 C 289.675781 428.261719 286.851562 431.289062 287.132812 432.066406 C 288.019531 434.503906 296.84375 430.800781 300.289062 426.542969 C 304.398438 421.46875 320.648438 409.878906 325.402344 408.632812 C 329.195312 407.640625 332.101562 403.414062 329.746094 402.3125 C 328.96875 401.949219 325.992188 402.675781 323.132812 403.929688 Z M 272.738281 455.636719 C 264.441406 462.398438 254.550781 471.183594 250.757812 475.152344 C 246.964844 479.125 238.824219 485.195312 232.664062 488.640625 C 218.15625 496.757812 211.324219 501.738281 212.03125 503.675781 C 213.335938 507.269531 247.695312 485.875 258.808594 474.546875 C 261.917969 471.375 268.894531 465.261719 274.316406 460.957031 C 279.738281 456.652344 285.675781 451.246094 287.515625 448.945312 C 294.179688 440.582031 287.488281 443.613281 272.738281 455.636719 Z M 210.421875 521.585938 C 209.671875 522.117188 206.632812 525.160156 203.667969 528.347656 C 200.703125 531.539062 192.238281 537.828125 184.855469 542.328125 C 161.914062 556.3125 160.628906 557.238281 160.902344 559.570312 C 161.050781 560.820312 161.820312 562.144531 162.613281 562.515625 C 164.429688 563.363281 174.386719 556.59375 180.363281 550.453125 C 182.851562 547.890625 188.652344 543.546875 193.25 540.796875 C 203.753906 534.511719 214.351562 524.535156 212.890625 522.308594 C 212.285156 521.378906 211.171875 521.054688 210.421875 521.585938 Z M 164.757812 527.253906 C 159.164062 530.457031 155.816406 533.480469 156.320312 534.867188 C 156.824219 536.25 158.617188 536.46875 160.84375 535.417969 C 164.519531 533.683594 174.757812 523.9375 174.28125 522.628906 C 174.144531 522.25 169.859375 524.332031 164.757812 527.253906 Z M 164.757812 527.253906 " fill-opacity="1" fill-rule="nonzero"/></g></g></g></svg>