<svg xmlns="http://www.w3.org/2000/svg" width="1024" height="1024" viewBox="0 0 1024 1024"><path transform="translate(0 960) scale(1 -1)" d="M514.276 808.050c90.696-0.104 164.192-73.599 164.295-164.285v-34.143h-2.276v-142.495l-21.845-132.892-36.409-216.997-31.266-202.57h-144.634l-70.315 419.43-21.845 133.029v176.629c0.104 90.696 73.599 164.192 164.285 164.295h0.010zM608.028 664.599c-9.859 43.366-48.083 75.247-93.753 75.247-53.035 0-96.028-42.993-96.028-96.028 0-0.022 0-0.044 0-0.066v0.003-171.076l20.935-127.431 60.757-362.359h28.308l22.437 145.362 36.409 217.088 20.935 127.431zM729.088 870.4h-434.176v68.267h434.176zM546.133 774.372h-68.267v130.162h68.267zM467.399 164.113l40.96-249.446h-291.271v191.42zM428.078-17.066l-16.202 98.258-126.521-29.355v-68.904zM556.601 164.113l250.311-58.027v-191.42h-291.271zM738.645 51.837l-126.521 29.355-16.202-98.258h142.723zM444.234 300.556l-444.234 52.065v234.337l415.972 52.247v-166.070zM68.267 413.332l293.956-34.452-14.518 88.747v94.208l-279.438-35.044zM608.028 639.204l415.972-52.247v-234.337l-444.234-52.019 28.262 172.578zM955.733 526.791l-279.438 35.044v-94.208l-14.518-88.656 293.956 34.452z"/></svg>
