<?xml version="1.0" encoding="UTF-8"?><svg id="a" xmlns="http://www.w3.org/2000/svg" viewBox="0 0 512 512"><path d="M406.4,347.54h24.6v16.31h-24.6c-1.84,0-3.33-1.49-3.33-3.33v-9.64c0-1.84,1.49-3.33,3.33-3.33Z" transform="translate(834.07 711.38) rotate(-180)"/><g><path d="M346.72,363.02c.53,.51,1.25,.82,2.04,.82h7.69c.56-2.07,1.82-3.86,3.51-5.08,1.54-1.13,3.44-1.8,5.5-1.8,4.31,0,7.94,2.92,9.01,6.88h9.85c-1.2-9.34-9.19-16.56-18.86-16.56-1.91,0-3.76,.28-5.5,.81-6.81,2.05-12,7.81-13.24,14.93Zm-.94-109.35v100.13c3.19-5.01,8.25-8.73,14.18-10.16,1.76-.43,3.61-.66,5.5-.66,12.03,0,21.96,9.16,23.2,20.86h30.88c1.65,0,2.98-1.33,2.98-2.98v-53.59c0-.68-.1-1.36-.28-2.01l-15.14-53.18c-.71-2.5-2.99-4.22-5.59-4.22h-49.91c-3.21,0-5.82,2.6-5.82,5.81Zm17.53,8.36c0-2.46,2-4.46,4.46-4.46h30.2c2.04,0,3.82,1.39,4.32,3.36l8.88,35.04c.81,3.19-2,6.13-5.22,5.47l-39.08-8.04c-2.07-.43-3.56-2.26-3.56-4.37v-27Z"/><path d="M346.72,363.02c-.05,.27-.1,.54-.12,.82h9.85c.56-2.07,1.82-3.86,3.51-5.08v-10.67c-6.81,2.05-12,7.81-13.24,14.93Z"/><path d="M325.93,241.05v122.79h16.33c.39-3.67,1.62-7.08,3.52-10.04,3.19-5.01,8.25-8.73,14.18-10.16v-94.79l-4.32-.99-29.71-6.81Z"/><path d="M325.93,241.05l22.86,.99s27.44,8.08,27.12,8.08-35.31,4.25-35.31,4.25l-14.68-13.33Z"/><path d="M266.35,363.84h9.84c1.08-3.96,4.71-6.88,9.02-6.88s7.94,2.92,9.01,6.88h9.85c-1.2-9.34-9.19-16.56-18.86-16.56-9.67,0-17.66,7.22-18.86,16.56Z"/><path d="M247.1,341.76v15.73c0,3.51,2.84,6.35,6.35,6.35h8.55c1.24-11.7,11.18-20.86,23.21-20.86s21.96,9.16,23.2,20.86h25.46v-28.43h-80.42c-3.51,0-6.35,2.85-6.35,6.35Z"/><g><path d="M346.43,366.31c0,10.51,8.52,19.03,19.03,19.03,10.51,0,19.03-8.52,19.03-19.03,0-.84-.05-1.66-.17-2.47-1.2-9.34-9.19-16.56-18.86-16.56-1.91,0-3.76,.28-5.5,.81-6.81,2.05-12,7.81-13.24,14.93-.05,.27-.1,.54-.12,.82-.12,.81-.17,1.63-.17,2.47Zm9.68,0c0-.85,.12-1.68,.34-2.47,.56-2.07,1.82-3.86,3.51-5.08,1.54-1.13,3.44-1.8,5.5-1.8,4.31,0,7.94,2.92,9.01,6.88,.22,.79,.34,1.62,.34,2.47,0,5.17-4.19,9.35-9.35,9.35s-9.35-4.18-9.35-9.35Z"/><path d="M346.43,366.31c0,10.51,8.52,19.03,19.03,19.03,10.51,0,19.03-8.52,19.03-19.03,0-.84-.05-1.66-.17-2.47-1.2-9.34-9.19-16.56-18.86-16.56-1.91,0-3.76,.28-5.5,.81-6.81,2.05-12,7.81-13.24,14.93-.05,.27-.1,.54-.12,.82-.12,.81-.17,1.63-.17,2.47Zm9.68,0c0-.85,.12-1.68,.34-2.47,.56-2.07,1.82-3.86,3.51-5.08,1.54-1.13,3.44-1.8,5.5-1.8,4.31,0,7.94,2.92,9.01,6.88,.22,.79,.34,1.62,.34,2.47,0,5.17-4.19,9.35-9.35,9.35s-9.35-4.18-9.35-9.35Z"/><path d="M346.43,366.31c0,10.51,8.52,19.03,19.03,19.03,10.51,0,19.03-8.52,19.03-19.03,0-.84-.05-1.66-.17-2.47-1.2-9.34-9.19-16.56-18.86-16.56-1.91,0-3.76,.28-5.5,.81-6.81,2.05-12,7.81-13.24,14.93-.05,.27-.1,.54-.12,.82-.12,.81-.17,1.63-.17,2.47Zm9.68,0c0-.85,.12-1.68,.34-2.47,.56-2.07,1.82-3.86,3.51-5.08,1.54-1.13,3.44-1.8,5.5-1.8,4.31,0,7.94,2.92,9.01,6.88,.22,.79,.34,1.62,.34,2.47,0,5.17-4.19,9.35-9.35,9.35s-9.35-4.18-9.35-9.35Z"/></g><g><path d="M266.18,366.31c0,10.51,8.52,19.03,19.03,19.03,10.51,0,19.03-8.52,19.03-19.03,0-.84-.05-1.66-.17-2.47-1.2-9.34-9.19-16.56-18.86-16.56-9.67,0-17.66,7.22-18.86,16.56-.12,.81-.17,1.63-.17,2.47Zm9.68,0c0-.85,.11-1.68,.33-2.47,1.08-3.96,4.71-6.88,9.02-6.88s7.94,2.92,9.01,6.88c.22,.79,.34,1.62,.34,2.47,0,5.17-4.19,9.35-9.35,9.35s-9.35-4.18-9.35-9.35Z"/><path d="M266.18,366.31c0,10.51,8.52,19.03,19.03,19.03,10.51,0,19.03-8.52,19.03-19.03,0-.84-.05-1.66-.17-2.47-1.2-9.34-9.19-16.56-18.86-16.56-9.67,0-17.66,7.22-18.86,16.56-.12,.81-.17,1.63-.17,2.47Zm9.68,0c0-.85,.11-1.68,.33-2.47,1.08-3.96,4.71-6.88,9.02-6.88s7.94,2.92,9.01,6.88c.22,.79,.34,1.62,.34,2.47,0,5.17-4.19,9.35-9.35,9.35s-9.35-4.18-9.35-9.35Z"/><path d="M266.18,366.31c0,10.51,8.52,19.03,19.03,19.03,10.51,0,19.03-8.52,19.03-19.03,0-.84-.05-1.66-.17-2.47-1.2-9.34-9.19-16.56-18.86-16.56-9.67,0-17.66,7.22-18.86,16.56-.12,.81-.17,1.63-.17,2.47Zm9.68,0c0-.85,.11-1.68,.33-2.47,1.08-3.96,4.71-6.88,9.02-6.88s7.94,2.92,9.01,6.88c.22,.79,.34,1.62,.34,2.47,0,5.17-4.19,9.35-9.35,9.35s-9.35-4.18-9.35-9.35Z"/></g><g><g><path d="M161.47,363.84h9.85c1.07-3.96,4.7-6.88,9.01-6.88,1.35,0,2.62,.28,3.77,.8v-10.1c-1.22-.25-2.48-.38-3.77-.38-9.67,0-17.66,7.22-18.86,16.56Z"/><path d="M98.52,363.84h9.85c1.07-3.96,4.7-6.88,9.01-6.88s7.94,2.92,9.01,6.88h9.85c-.6-4.7-2.92-8.86-6.31-11.84-3.35-2.94-7.74-4.72-12.55-4.72-9.67,0-17.66,7.22-18.86,16.56Z"/><path d="M81,341.76v15.73c0,3.51,2.84,6.35,6.35,6.35h6.82c1.24-11.7,11.18-20.86,23.21-20.86,4.62,0,8.93,1.35,12.55,3.68,5.82,3.73,9.89,9.97,10.65,17.18h16.55c1.24-11.7,11.17-20.86,23.2-20.86,1.28,0,2.54,.1,3.77,.31v-7.88H87.35c-3.51,0-6.35,2.85-6.35,6.35Z"/><path d="M161.47,363.84h9.85c1.07-3.96,4.7-6.88,9.01-6.88,1.35,0,2.62,.28,3.77,.8,2.55,1.12,4.51,3.35,5.25,6.08h9.84c-1.04-8.1-7.17-14.59-15.09-16.18-1.22-.25-2.48-.38-3.77-.38-9.67,0-17.66,7.22-18.86,16.56Z"/><path d="M129.93,335.41v11.25c5.82,3.73,9.89,9.97,10.65,17.18h16.55c1.24-11.7,11.17-20.86,23.2-20.86,1.28,0,2.54,.1,3.77,.31,10.28,1.67,18.32,10.09,19.43,20.55h6.83c3.5,0,6.35-2.84,6.35-6.35v-15.73c0-3.5-2.85-6.35-6.35-6.35h-80.43Z"/><path d="M129.93,352v11.84h6.31c-.6-4.7-2.92-8.86-6.31-11.84Z"/></g><g><g><path d="M161.3,366.31c0,10.51,8.52,19.03,19.03,19.03s19.03-8.52,19.03-19.03c0-.84-.05-1.66-.17-2.47-1.04-8.1-7.17-14.59-15.09-16.18-1.22-.25-2.48-.38-3.77-.38-9.67,0-17.66,7.22-18.86,16.56-.12,.81-.17,1.63-.17,2.47Zm9.68,0c0-.85,.12-1.68,.34-2.47,1.07-3.96,4.7-6.88,9.01-6.88,1.35,0,2.62,.28,3.77,.8,2.55,1.12,4.51,3.35,5.25,6.08,.22,.79,.33,1.62,.33,2.47,0,5.17-4.18,9.35-9.35,9.35s-9.35-4.18-9.35-9.35Z"/><path d="M161.3,366.31c0,10.51,8.52,19.03,19.03,19.03s19.03-8.52,19.03-19.03c0-.84-.05-1.66-.17-2.47-1.04-8.1-7.17-14.59-15.09-16.18-1.22-.25-2.48-.38-3.77-.38-9.67,0-17.66,7.22-18.86,16.56-.12,.81-.17,1.63-.17,2.47Zm9.68,0c0-.85,.12-1.68,.34-2.47,1.07-3.96,4.7-6.88,9.01-6.88,1.35,0,2.62,.28,3.77,.8,2.55,1.12,4.51,3.35,5.25,6.08,.22,.79,.33,1.62,.33,2.47,0,5.17-4.18,9.35-9.35,9.35s-9.35-4.18-9.35-9.35Z"/><path d="M161.3,366.31c0,10.51,8.52,19.03,19.03,19.03s19.03-8.52,19.03-19.03c0-.84-.05-1.66-.17-2.47-1.04-8.1-7.17-14.59-15.09-16.18-1.22-.25-2.48-.38-3.77-.38-9.67,0-17.66,7.22-18.86,16.56-.12,.81-.17,1.63-.17,2.47Zm9.68,0c0-.85,.12-1.68,.34-2.47,1.07-3.96,4.7-6.88,9.01-6.88,1.35,0,2.62,.28,3.77,.8,2.55,1.12,4.51,3.35,5.25,6.08,.22,.79,.33,1.62,.33,2.47,0,5.17-4.18,9.35-9.35,9.35s-9.35-4.18-9.35-9.35Z"/></g><g><path d="M98.35,366.31c0,10.51,8.52,19.03,19.03,19.03,10.51,0,19.03-8.52,19.03-19.03,0-.84-.05-1.66-.17-2.47-.6-4.7-2.92-8.86-6.31-11.84-3.35-2.94-7.74-4.72-12.55-4.72-9.67,0-17.66,7.22-18.86,16.56-.12,.81-.17,1.63-.17,2.47Zm9.68,0c0-.85,.12-1.68,.34-2.47,1.07-3.96,4.7-6.88,9.01-6.88s7.94,2.92,9.01,6.88c.22,.79,.34,1.62,.34,2.47,0,5.17-4.19,9.35-9.35,9.35-5.17,0-9.35-4.18-9.35-9.35Z"/><path d="M98.35,366.31c0,10.51,8.52,19.03,19.03,19.03,10.51,0,19.03-8.52,19.03-19.03,0-.84-.05-1.66-.17-2.47-.6-4.7-2.92-8.86-6.31-11.84-3.35-2.94-7.74-4.72-12.55-4.72-9.67,0-17.66,7.22-18.86,16.56-.12,.81-.17,1.63-.17,2.47Zm9.68,0c0-.85,.12-1.68,.34-2.47,1.07-3.96,4.7-6.88,9.01-6.88s7.94,2.92,9.01,6.88c.22,.79,.34,1.62,.34,2.47,0,5.17-4.19,9.35-9.35,9.35-5.17,0-9.35-4.18-9.35-9.35Z"/><path d="M98.35,366.31c0,10.51,8.52,19.03,19.03,19.03,10.51,0,19.03-8.52,19.03-19.03,0-.84-.05-1.66-.17-2.47-.6-4.7-2.92-8.86-6.31-11.84-3.35-2.94-7.74-4.72-12.55-4.72-9.67,0-17.66,7.22-18.86,16.56-.12,.81-.17,1.63-.17,2.47Zm9.68,0c0-.85,.12-1.68,.34-2.47,1.07-3.96,4.7-6.88,9.01-6.88s7.94,2.92,9.01,6.88c.22,.79,.34,1.62,.34,2.47,0,5.17-4.19,9.35-9.35,9.35-5.17,0-9.35-4.18-9.35-9.35Z"/></g></g></g><rect x="81" y="241.05" width="229.7" height="87.63" rx="6.59" ry="6.59" transform="translate(391.7 569.73) rotate(-180)"/><g><rect x="214.21" y="180.44" width="37.51" height="10.54" rx="3.55" ry="3.55" transform="translate(465.92 371.41) rotate(-180)"/><path d="M96.07,213.45l123.41-86.33,2.82-1.97c10.17-7.12,24.15,.16,24.15,12.58v42.71h-26.97v-20.77l-76.89,53.79-15.07,10.54h-46.52l15.07-10.54Z"/><g><path d="M233.22,206.3l1.68-2.62c1.4-2.17,1.39-4.95-.02-7.11l-1.66-2.54c-.12-.18-.39-.18-.51,0l-1.66,2.54c-1.41,2.16-1.42,4.94-.02,7.11l1.68,2.62c.12,.19,.4,.19,.52,0Z"/><g><g><path d="M248.05,213.47l.63-3.05c.52-2.53-.49-5.12-2.58-6.63l-2.47-1.77c-.18-.13-.43-.03-.48,.18l-.63,2.97c-.54,2.52,.45,5.12,2.54,6.65l2.51,1.84c.18,.13,.44,.03,.48-.19Z"/><path d="M242.11,230.64l.9-2.98c.75-2.47-.03-5.14-1.98-6.83l-2.3-1.99c-.17-.14-.43-.07-.49,.14l-.9,2.9c-.76,2.47,0,5.14,1.93,6.85l2.34,2.05c.17,.15,.43,.07,.5-.14Z"/><path d="M259.32,230.64l.9-2.98c.75-2.47-.03-5.14-1.98-6.83l-2.3-1.99c-.17-.14-.43-.07-.49,.14l-.9,2.9c-.76,2.47,0,5.14,1.93,6.85l2.34,2.05c.17,.15,.43,.07,.5-.14Z"/></g><g><path d="M217.87,213.47l-.63-3.05c-.52-2.53,.49-5.12,2.58-6.63l2.47-1.77c.18-.13,.43-.03,.48,.18l.63,2.97c.54,2.52-.45,5.12-2.54,6.65l-2.51,1.84c-.18,.13-.44,.03-.48-.19Z"/><path d="M223.81,230.64l-.9-2.98c-.75-2.47,.03-5.14,1.98-6.83l2.3-1.99c.17-.14,.43-.07,.49,.14l.9,2.9c.76,2.47,0,5.14-1.93,6.85l-2.34,2.05c-.17,.15-.43,.07-.5-.14Z"/><path d="M206.6,230.64l-.9-2.98c-.75-2.47,.03-5.14,1.98-6.83l2.3-1.99c.17-.14,.43-.07,.49,.14l.9,2.9c.76,2.47,0,5.14-1.93,6.85l-2.34,2.05c-.17,.15-.43,.07-.5-.14Z"/></g></g></g></g></g></svg>