<svg id="Layer_1" data-name="Layer 1" xmlns="http://www.w3.org/2000/svg" viewBox="0 0 256 256">
  <title>With Grid</title>
  <path d="M82.02,174.58008l-1.68994-15.32031a51.04921,51.04921,0,0,1-16.27,9.55029v13.69971l8.60986,9.54a4.99168,4.99168,0,0,0,3.71,1.6504h8.2002a5.00576,5.00576,0,0,0,4.2998-7.5503Zm148.85986-48.5a5.437,5.437,0,0,0-3.56006-2.27l-3.67968-.6499A35.94365,35.94365,0,0,1,209.71,100.68994l-.00342-.021A31.91446,31.91446,0,0,0,218.21191,80.415,3.00071,3.00071,0,0,0,215.5293,77.294a32.86576,32.86576,0,0,0-3.48145-.19532c-.00879,0-.01855.00489-.02832,0A31.95669,31.95669,0,0,0,191.24121,84.791l-.001-.001a41.65225,41.65225,0,0,0-23.5-7.54h-.25c-.71.02-1.44043.04-2.14013.0498l-1.09033.02c-2.17969.03028-4.50977.07032-6.96973.07032-.3999,0-.81006,0-1.28027-.01026-4.85987-.00976-9.21-.16992-13.30957-.48974A146.43944,146.43944,0,0,1,119.46,72.9502c-2.3501-.5503-4.58008-1.07032-6.71973-1.49024-4.15039-.81006-8.40039-1.85986-12.63037-3.12012a50.93336,50.93336,0,0,0-54.36963,17.04c-1.44043-1.23-2.7705-2.4497-3.97021-3.62988,4.48-4.48,6.43018-9.00977,5.39014-13-.82032-3.12012-3.78028-6.7002-7.66016-7.18018-4.77-.60986-9.02,3.48-10.25,6.66016-.91992,2.39014-1.03027,6.6001,3.87012,12.96A55.61788,55.61788,0,0,1,27.27,84.91016a2.99684,2.99684,0,1,0,2.91016,5.23974,64.0445,64.0445,0,0,0,6.96-4.43994c1.46,1.46,3.1499,3,5.10986,4.64014a50.38058,50.38058,0,0,0-5.1499,11.14013c-.01026.03956-.02.08985-.03028.12989a50.94319,50.94319,0,0,0,6,43.52L37.5,162.6499a5.41261,5.41261,0,0,0-.25,1.87012l.91016,24.37012a4.98335,4.98335,0,0,0,5,4.81006H52.6499A4.98138,4.98138,0,0,0,57.48,189.96973V164.52979a44.91042,44.91042,0,0,0,30.79-26.21,43.985,43.985,0,0,0,2.0498-6.06A3.00157,3.00157,0,1,1,96.12988,133.77c-.3999,1.5498-.87988,3.06982-1.41992,4.5498a50.50474,50.50474,0,0,1-9.73,16.33008A83.41565,83.41565,0,0,0,110.66016,160.73a.12146.12146,0,0,1,.05957.01025,84.48059,84.48059,0,0,0,25.48047-1.98046V130.5a3,3,0,0,1,6,0v30.7002l9.0996,16.98,6.9004,12.87988a4.98591,4.98591,0,0,0,4.40966,2.64014H170.98A4.99878,4.99878,0,0,0,175.6001,186.79l-7.18994-16.99024c-.04-.08984-.07032-.18994-.11036-.27978l-.33007-.77.29-.83984a2.2268,2.2268,0,0,1,.07031-.24024l4.10986-12.08984,3.9502-11.64014a2.99935,2.99935,0,0,1,5.67968,1.93018l-3.32959,9.81006a41.28585,41.28585,0,0,0,21.55957-7.6001l22.06006,3.88965a5.52906,5.52906,0,0,0,6.39014-4.4795l3.04-17.29A5.43908,5.43908,0,0,0,230.87988,126.08008ZM37.71,77.29c-2.33984-2.97022-3.42969-5.41992-2.85986-6.89014.48974-1.27978,2.39013-2.89013,3.71-2.89013A1.18028,1.18028,0,0,1,38.75,67.52c1.08008.14014,2.31006,1.60986,2.6001,2.75C41.75977,71.83984,40.5498,74.37988,37.71,77.29Zm163.54981,43.58008a3.36988,3.36988,0,1,1-6.73975,0v-2.99024a3.36988,3.36988,0,0,1,6.73975,0Zm-65.01954,41.5498-8.41015,24.66992a4.99182,4.99182,0,0,0,4.73,6.61036h9.27a4.96592,4.96592,0,0,0,4.66015-3.18018l1.93946-4.98-11.86963-22.16992A2.95425,2.95425,0,0,1,136.24023,162.41992Z"/>
</svg>
