<?xml version="1.0" encoding="UTF-8"?>
<svg id="Layer_1" data-name="Layer 1" xmlns="http://www.w3.org/2000/svg" viewBox="0 0 4000 4000">
  <defs>
    <style>
      .cls-1 {
        stroke-width: 0px;
      }
    </style>
  </defs>
  <path class="cls-1" d="m1800.06,2889.25c63.52,14.2,129.23,21.47,196.09,21.47,230.62,0,447.29-86.63,610.04-243.99,133.13-128.75,217.05-292.19,242.56-469.04-351.85,145.1-612.96,319.2-778.98,449.06-129.55,101.32-219.24,189.1-269.71,242.49Z"/>
  <path class="cls-1" d="m2857.04,2082c0-43.37-3.45-86.21-10.2-128.29-516.65,136.65-888.17,331.56-1112.7,474.54-167.45,106.64-278.17,199.47-334.8,250.98,90.95,84.33,197.8,147.19,313.98,185.93,43.47-48.73,144.65-154.4,307.16-281.47,176.12-137.76,456.58-324.11,836.13-475.58.28-8.67.42-17.37.42-26.1Z"/>
  <path class="cls-1" d="m1632.19,2399.19c-152.2-80.19-321.15-140.89-487.63-194.56,23.67,154.36,91.89,298.25,198.57,417.42,51.86-47.47,147.16-128.05,289.06-222.86Z"/>
  <path class="cls-1" d="m1883.7,2246.98c-251.3-95.68-500.02-175.87-745.36-235.77-2.02,23.42-3.06,47.02-3.06,70.79,0,12.01.28,23.95.8,35.85,194.74,61.95,394.97,132.4,572.69,231.81,56.39-35.43,114.75-69.68,174.93-102.68Z"/>
  <path class="cls-1" d="m3507.45,1897.39c.03-17.02-10.37-32.3-26.24-38.5l-223.56-86.87c-22.59-8.7-40.1-27.01-47.75-49.95l-93.24-279.42c-1.29-3.97-1.11-8.25.56-12.04,37.28-83.53,105.15-190.91,119.45-237.65,1.95-6.37.21-13.26-4.42-17.99-95.12-97.28-189.55-189.62-275.83-265.36l-285.58,129.86-18.8,10.09c-11.14,75.63-42.71,164.6-95.33,268.42,243.08,167,403.05,439.77,408.1,748.91.1,5.01.14,10.06.14,15.11,0,23.95-.94,47.68-2.75,71.18-37.63,484.04-455.78,865.44-966.03,865.44s-968.78-419.34-968.78-936.62c0-315.37,161.18-594.31,408.23-764.02-54.23-106.96-86.07-198.11-96.27-275.17l-304.72-134.94-276.57,271.48,115.62,244.93c9.15,19.42,9.99,41.7,2.3,61.71l-99.4,259.13c-4.59,12.01-14.1,21.47-26.1,26.03l-257.6,100.41-2.23,353c-.1,17.3,10.82,32.72,27.18,38.32l228.85,78.7c18.59,6.37,33.24,20.88,39.89,39.4,34.77,99.93,80.92,210.26,97.49,264.77,4.52,14.83,3.27,30.77-3.45,44.76-26.45,55.2-73.51,146.67-121.51,237.48-6.58,12.43-4.39,27.67,5.4,37.76,101.42,98.22,204.27,213.57,261.91,255.37,7.2,5.26,16.78,5.95,24.78,1.98l216.87-107.37c19.49-9.64,42.57-8.39,60.87,3.34,75.63,48.45,194.63,113.88,346.32,158.02,20.12,5.85,36.2,20.92,43.79,40.44l79.6,205.04c7.55,19.46,26.24,32.26,47.13,32.26l329.37.07c14.51.03,27.5-9.01,32.54-22.62l72.15-194.46c12.88-31.74,37.83-57.05,69.37-70.41,98.12-41.52,228.78-94.6,300.41-145.77,21.82-15.59,50.61-17.4,74.31-4.91l203.54,107.24c12.39,6.54,27.64,4.39,37.73-5.36l265.53-256.2c8.49-8.14,10.41-20.99,4.56-31.22-29.93-52.59-63.14-121.51-97.87-197.9-15.94-31.81-18.1-68.85-5.92-102.29l91.5-251.33c4.42-12.15,13.99-21.75,26.1-26.28l218.51-81.13c21.51-8.21,36.44-27.98,38.36-50.96,6.09-73.02,2.33-206.08,1.5-323.9Z"/>
  <path class="cls-1" d="m1579.22,1356.51c114.09,198.57,271.8,402.63,356.83,507.95,30.91,38.29,89.31,38.29,120.22,0,85.03-105.32,242.73-309.39,356.83-507.95,18.31-31.88,35.5-63.62,51.09-94.78,50.82-101.56,84.54-197,84.54-271.41,0-301.14-247.4-545.23-552.57-545.23s-552.57,244.09-552.57,545.23c0,74.41,33.73,169.85,84.54,271.41,15.59,31.15,32.79,62.89,51.09,94.78Zm416.94-606.7c134.63,0,243.74,107.69,243.74,240.51,0,66.3-27.22,126.38-71.18,169.85-44.13,43.65-105.15,70.66-172.57,70.66s-128.43-27.01-172.57-70.66c-43.96-43.47-71.18-103.55-71.18-169.85,0-132.82,109.12-240.51,243.74-240.51Z"/>
</svg>