<?xml version="1.0" encoding="UTF-8"?><svg id="a" xmlns="http://www.w3.org/2000/svg" viewBox="0 0 512 512"><g><path d="M431,219.58c0,4.68-1.52,9.4-4.63,13.38-7.39,9.43-21.04,11.06-30.47,3.67l-11.57-9.08L256,126.8,127.67,227.55l-11.57,9.08c-9.43,7.41-23.06,5.76-30.45-3.67h-.01c-7.39-9.43-5.76-23.06,3.67-30.47l38.37-30.13,93.2-73.15,2.79-2.19,18.4-14.43c8.19-6.43,19.71-6.43,27.89,0l18.41,14.43,2.79,2.19,93.18,73.15,38.37,30.13c5.45,4.28,8.3,10.65,8.3,17.09Z"/><path d="M384.32,245.62v140.5c0,13.31-10.78,24.08-24.07,24.08h-.01c-13.29,0-24.07-10.78-24.07-24.08v-117.64c0-16.45-13.32-29.77-29.77-29.77h-100.8c-16.45,0-29.77,13.32-29.77,29.77v117.64c0,13.31-10.78,24.08-24.07,24.08h-.01c-13.29,0-24.07-10.78-24.07-24.08V245.62l128.33-100.74,128.33,100.74Z"/></g><g><g><path d="M211.95,374.44l1.48,1.48h-9.06v-1.43s-1.62-.82-.71-3.07c.9-2.25,2.18-9.56,1.27-15.16-.04-.26-.09-.51-.13-.76,.82,.26,1.69,.4,2.59,.4,1.39,0,2.72-.33,3.91-.94,.18,.09,.36,.17,.54,.25-1.52,4.72-3.04,11.73-1.06,17.19,0,0,1.48,.26,1.17,2.04Z"/><path d="M213.86,349.99s-.1,.22-.28,.61c-.06-.25-.11-.49-.16-.71l.44,.09Z"/><path d="M213.58,350.61c-.06-.25-.11-.49-.16-.71l.44,.09s-.1,.22-.28,.61Z"/><path d="M214.11,375.92v-1.43s-1.61-.82-.71-3.07c.9-2.25,2.18-9.56,1.27-15.16-.02-.13-.04-.26-.07-.38,.21,.02,.41,.02,.62,.02,.56,0,1.12-.06,1.67-.17,.88,.2,1.77,.3,2.67,.3,.61,0,1.22-.04,1.82-.14-1.44,4.69-2.73,11.31-.85,16.51,0,0,1.48,.26,1.17,2.04l1.48,1.48h-9.06Z"/></g><g><path d="M267.89,374.44l1.48,1.48h-9.06v-1.43s-1.62-.82-.71-3.07c.9-2.25,2.19-9.56,1.27-15.16-.18-1.1-.36-2.1-.53-3,.06,0,.12,0,.17,0,1.59,1.67,3.81,2.65,6.21,2.65,.29,0,.57-.01,.86-.04-1.45,4.69-2.75,11.33-.86,16.54,0,0,1.48,.26,1.17,2.04Z"/><path d="M269.8,349.99s-.1,.22-.28,.61c-.06-.25-.11-.49-.16-.71l.44,.09Z"/><path d="M269.52,350.61c-.06-.25-.11-.49-.16-.71l.44,.09s-.1,.22-.28,.61Z"/><path d="M270.05,375.92v-1.43s-1.61-.82-.71-3.07c.9-2.25,2.18-9.56,1.27-15.16-.07-.41-.13-.8-.2-1.18,.22-.11,.44-.22,.66-.35,1.41,.76,2.99,1.17,4.64,1.17,.56,0,1.11-.05,1.64-.14-1.46,4.7-2.79,11.39-.89,16.64,0,0,1.48,.26,1.17,2.04l1.48,1.48h-9.06Z"/></g><path d="M213.42,349.9l.44,.09s-.1,.22-.28,.61c-.06-.25-.11-.49-.16-.71Z"/><path d="M269.8,349.99s-.1,.22-.28,.61c-.06-.25-.11-.49-.16-.71l.44,.09Z"/><path d="M318.8,285.7c-.52,2.14-1,2.46-1,2.46,0,0,.32,3.5-2.58,4.53-1.62,.58-5.34,.82-8.32,.92,.17,.56,.27,1.15,.27,1.77,0,3.11-2.38,5.67-5.41,5.95,1.6,1.07,2.66,2.9,2.66,4.97,0,2.85-2,5.23-4.67,5.83,1.28,1.77,2.03,3.95,2.03,6.3,0,4.72-3.02,8.73-7.24,10.2,.5,1.07,.79,2.26,.79,3.52,0,4.6-3.73,8.33-8.33,8.33-.4,0-.8-.04-1.19-.1-.6,2.21-2.09,4.06-4.07,5.13,.02,.22,.04,.43,.04,.66,0,3.35-2.72,6.08-6.08,6.08-1.95,0-3.68-.92-4.79-2.35-.87,1.41-2.42,2.35-4.19,2.35-2.04,0-3.79-1.24-4.54-3.01-.8,.25-1.64,.39-2.52,.39-2.64,0-4.98-1.23-6.52-3.13-2.64,1.89-5.88,3.01-9.39,3.01-3.87,0-7.42-1.36-10.2-3.63-1.25,1.37-3.05,2.24-5.06,2.24-.5,0-.99-.06-1.46-.16-1.46,2.64-4.26,4.42-7.49,4.42-.93,0-1.83-.15-2.66-.43-.52,.19-1.08,.3-1.67,.3-1.6,0-3.01-.77-3.91-1.95-.9,1.18-2.32,1.95-3.92,1.95-2.72,0-4.93-2.21-4.93-4.93,0-1.34,.54-2.57,1.42-3.46-1.92-1.52-3.16-3.88-3.16-6.53,0-1.59,.45-3.07,1.23-4.33-5-.97-8.78-5.37-8.78-10.66,0-3.39,1.55-6.41,3.98-8.4-.81-1.39-1.28-3.01-1.28-4.73,0-2.86,1.28-5.41,3.29-7.14-.28-.89-.43-1.84-.43-2.82,0-5.18,4.2-9.38,9.37-9.38,1.27,0,2.48,.25,3.59,.71,1.53-3.1,4.72-5.24,8.42-5.24,2.53,0,4.83,1.01,6.52,2.64,1.7-2.37,4.48-3.92,7.62-3.92,3.3,0,6.2,1.7,7.87,4.28,1.67-2.57,4.57-4.28,7.87-4.28s6.14,1.67,7.82,4.2c1.28-.65,2.73-1.02,4.26-1.02,.83,0,1.64,.11,2.4,.31,.84-4.26,4.57-7.47,9.06-7.54,.85-4.3,4.65-7.55,9.2-7.55,.25,0,.5,.01,.74,.03,.01-2.43,1.99-4.4,4.42-4.4,.42,0,.82,.06,1.21,.17,.85-2.26,3.03-3.87,5.58-3.87,2.08,0,3.92,1.07,4.99,2.7,.87-.5,1.88-.79,2.96-.79,3.3,0,5.97,2.67,5.97,5.97,0,.09-.01,.17-.01,.26,2.32,.82,3.98,3.03,3.98,5.62,0,.21-.01,.42-.03,.62,2.12,1.6,6.65,5.26,6.26,6.92Z"/></g></svg>