<?xml version="1.0" encoding="UTF-8"?><svg id="a" xmlns="http://www.w3.org/2000/svg" viewBox="0 0 512 512"><g><path d="M82.9,275.56h14.01v9.29h-14.01c-1.05,0-1.9-.85-1.9-1.9v-5.49c0-1.05,.85-1.9,1.9-1.9Z"/><g><path d="M129.01,284.38c-.3,.29-.71,.47-1.17,.47h-4.39c-.31-1.18-1.03-2.2-1.99-2.89-.88-.65-1.96-1.03-3.13-1.03-2.45,0-4.52,1.66-5.13,3.92h-5.62c.69-5.32,5.24-9.43,10.75-9.43,1.09,0,2.14,.16,3.13,.46,3.87,1.17,6.84,4.44,7.55,8.5Z"/><path d="M126.22,218.78h-28.43c-1.48,0-2.78,.99-3.18,2.41l-8.62,30.29c-.11,.37-.16,.76-.16,1.15v30.52c0,.94,.76,1.7,1.69,1.7h17.6c.7-6.67,6.36-11.88,13.21-11.88,1.08,0,2.13,.13,3.13,.38,3.38,.81,6.26,2.93,8.08,5.78v-57.03c0-1.83-1.49-3.32-3.32-3.32Zm-6.67,23.45c0,1.21-.84,2.25-2.03,2.49l-22.26,4.58c-1.83,.38-3.43-1.29-2.97-3.11l5.06-19.96c.29-1.12,1.3-1.91,2.46-1.91h17.2c1.41,0,2.54,1.13,2.54,2.54v15.37Z"/><path d="M129.01,284.38c.02,.15,.05,.31,.07,.47h-5.63c-.31-1.18-1.03-2.2-1.99-2.89v-6.08c3.87,1.17,6.84,4.44,7.55,8.5Z"/><path d="M140.84,214.91v69.94h-9.3c-.21-2.09-.92-4.03-2-5.72-1.82-2.85-4.7-4.97-8.08-5.78v-54l2.49-.57,16.89-3.87Z"/><path d="M140.84,214.9l-13.02,.57s-15.63,4.6-15.45,4.6,20.11,2.42,20.11,2.42l8.36-7.59Z"/><path d="M174.79,284.85h-5.62c-.61-2.26-2.68-3.92-5.13-3.92s-4.52,1.66-5.13,3.92h-5.62c.69-5.32,5.24-9.43,10.75-9.43s10.06,4.11,10.75,9.43Z"/><path d="M185.75,272.27v8.96c0,2-1.62,3.62-3.62,3.62h-4.88c-.7-6.67-6.36-11.88-13.21-11.88s-12.51,5.21-13.21,11.88h-14.51v-16.19h45.81c2,0,3.62,1.62,3.62,3.61Z"/><g><path d="M129.08,284.85c-.02-.16-.05-.32-.07-.47-.71-4.06-3.68-7.33-7.55-8.5-.99-.3-2.04-.46-3.13-.46-5.51,0-10.06,4.11-10.75,9.43-.06,.46-.09,.93-.09,1.41,0,5.98,4.85,10.84,10.84,10.84s10.84-4.86,10.84-10.84c0-.48-.03-.95-.09-1.41Zm-10.75,6.73c-2.94,0-5.33-2.38-5.33-5.32,0-.49,.07-.96,.2-1.41,.61-2.26,2.68-3.92,5.13-3.92,1.17,0,2.25,.38,3.13,1.03,.96,.69,1.68,1.71,1.99,2.89,.13,.45,.2,.92,.2,1.41,0,2.94-2.38,5.32-5.32,5.32Z"/><path d="M129.08,284.85c-.02-.16-.05-.32-.07-.47-.71-4.06-3.68-7.33-7.55-8.5-.99-.3-2.04-.46-3.13-.46-5.51,0-10.06,4.11-10.75,9.43-.06,.46-.09,.93-.09,1.41,0,5.98,4.85,10.84,10.84,10.84s10.84-4.86,10.84-10.84c0-.48-.03-.95-.09-1.41Zm-10.75,6.73c-2.94,0-5.33-2.38-5.33-5.32,0-.49,.07-.96,.2-1.41,.61-2.26,2.68-3.92,5.13-3.92,1.17,0,2.25,.38,3.13,1.03,.96,.69,1.68,1.71,1.99,2.89,.13,.45,.2,.92,.2,1.41,0,2.94-2.38,5.32-5.32,5.32Z"/><path d="M129.08,284.85c-.02-.16-.05-.32-.07-.47-.71-4.06-3.68-7.33-7.55-8.5-.99-.3-2.04-.46-3.13-.46-5.51,0-10.06,4.11-10.75,9.43-.06,.46-.09,.93-.09,1.41,0,5.98,4.85,10.84,10.84,10.84s10.84-4.86,10.84-10.84c0-.48-.03-.95-.09-1.41Zm-10.75,6.73c-2.94,0-5.33-2.38-5.33-5.32,0-.49,.07-.96,.2-1.41,.61-2.26,2.68-3.92,5.13-3.92,1.17,0,2.25,.38,3.13,1.03,.96,.69,1.68,1.71,1.99,2.89,.13,.45,.2,.92,.2,1.41,0,2.94-2.38,5.32-5.32,5.32Z"/></g><g><path d="M174.79,284.85c-.69-5.32-5.24-9.43-10.75-9.43s-10.06,4.11-10.75,9.43c-.06,.46-.09,.93-.09,1.41,0,5.98,4.85,10.84,10.84,10.84s10.84-4.86,10.84-10.84c0-.48-.03-.95-.09-1.41Zm-10.75,6.73c-2.94,0-5.33-2.38-5.33-5.32,0-.49,.07-.96,.2-1.41,.61-2.26,2.68-3.92,5.13-3.92s4.52,1.66,5.13,3.92c.13,.45,.2,.92,.2,1.41,0,2.94-2.39,5.32-5.33,5.32Z"/><path d="M174.79,284.85c-.69-5.32-5.24-9.43-10.75-9.43s-10.06,4.11-10.75,9.43c-.06,.46-.09,.93-.09,1.41,0,5.98,4.85,10.84,10.84,10.84s10.84-4.86,10.84-10.84c0-.48-.03-.95-.09-1.41Zm-10.75,6.73c-2.94,0-5.33-2.38-5.33-5.32,0-.49,.07-.96,.2-1.41,.61-2.26,2.68-3.92,5.13-3.92s4.52,1.66,5.13,3.92c.13,.45,.2,.92,.2,1.41,0,2.94-2.39,5.32-5.33,5.32Z"/><path d="M174.79,284.85c-.69-5.32-5.24-9.43-10.75-9.43s-10.06,4.11-10.75,9.43c-.06,.46-.09,.93-.09,1.41,0,5.98,4.85,10.84,10.84,10.84s10.84-4.86,10.84-10.84c0-.48-.03-.95-.09-1.41Zm-10.75,6.73c-2.94,0-5.33-2.38-5.33-5.32,0-.49,.07-.96,.2-1.41,.61-2.26,2.68-3.92,5.13-3.92s4.52,1.66,5.13,3.92c.13,.45,.2,.92,.2,1.41,0,2.94-2.39,5.32-5.33,5.32Z"/></g><g><g><path d="M234.53,284.85h-5.62c-.61-2.26-2.68-3.92-5.13-3.92-.76,0-1.49,.16-2.14,.45v-5.75c.69-.14,1.41-.21,2.14-.21,5.51,0,10.06,4.11,10.75,9.43Z"/><path d="M270.39,284.85h-5.62c-.61-2.26-2.68-3.92-5.13-3.92s-4.52,1.66-5.13,3.92h-5.62c.35-2.68,1.67-5.05,3.6-6.74,1.91-1.68,4.4-2.69,7.15-2.69,5.51,0,10.06,4.11,10.75,9.43Z"/><path d="M280.36,272.27v8.96c0,2-1.62,3.62-3.62,3.62h-3.89c-.7-6.67-6.36-11.88-13.21-11.88-2.63,0-5.09,.77-7.15,2.1-3.32,2.12-5.63,5.67-6.06,9.78h-9.44c-.7-6.67-6.36-11.88-13.21-11.88-.73,0-1.44,.06-2.14,.17v-4.48h55.1c2,0,3.62,1.62,3.62,3.61Z"/><path d="M234.53,284.85h-5.62c-.61-2.26-2.68-3.92-5.13-3.92-.76,0-1.49,.16-2.14,.45-1.46,.64-2.57,1.91-2.99,3.47h-5.62c.6-4.62,4.1-8.32,8.61-9.22,.69-.14,1.41-.21,2.14-.21,5.51,0,10.06,4.11,10.75,9.43Z"/><path d="M252.49,268.66v6.41c-3.32,2.12-5.63,5.67-6.06,9.78h-9.44c-.7-6.67-6.36-11.88-13.21-11.88-.73,0-1.44,.06-2.14,.17-5.86,.96-10.45,5.75-11.07,11.71h-3.89c-2,0-3.62-1.62-3.62-3.62v-8.96c0-1.99,1.62-3.61,3.62-3.61h45.81Z"/><path d="M252.49,278.11v6.74h-3.6c.35-2.68,1.67-5.05,3.6-6.74Z"/></g><g><g><path d="M234.53,284.85c-.69-5.32-5.24-9.43-10.75-9.43-.73,0-1.45,.07-2.14,.21-4.51,.9-8.01,4.6-8.61,9.22-.06,.46-.09,.93-.09,1.41,0,5.98,4.85,10.84,10.84,10.84s10.84-4.86,10.84-10.84c0-.48-.03-.95-.09-1.41Zm-10.75,6.73c-2.94,0-5.33-2.38-5.33-5.32,0-.49,.07-.96,.2-1.41,.42-1.56,1.53-2.83,2.99-3.47,.65-.29,1.38-.45,2.14-.45,2.45,0,4.52,1.66,5.13,3.92,.13,.45,.2,.92,.2,1.41,0,2.94-2.39,5.32-5.33,5.32Z"/><path d="M234.53,284.85c-.69-5.32-5.24-9.43-10.75-9.43-.73,0-1.45,.07-2.14,.21-4.51,.9-8.01,4.6-8.61,9.22-.06,.46-.09,.93-.09,1.41,0,5.98,4.85,10.84,10.84,10.84s10.84-4.86,10.84-10.84c0-.48-.03-.95-.09-1.41Zm-10.75,6.73c-2.94,0-5.33-2.38-5.33-5.32,0-.49,.07-.96,.2-1.41,.42-1.56,1.53-2.83,2.99-3.47,.65-.29,1.38-.45,2.14-.45,2.45,0,4.52,1.66,5.13,3.92,.13,.45,.2,.92,.2,1.41,0,2.94-2.39,5.32-5.33,5.32Z"/><path d="M234.53,284.85c-.69-5.32-5.24-9.43-10.75-9.43-.73,0-1.45,.07-2.14,.21-4.51,.9-8.01,4.6-8.61,9.22-.06,.46-.09,.93-.09,1.41,0,5.98,4.85,10.84,10.84,10.84s10.84-4.86,10.84-10.84c0-.48-.03-.95-.09-1.41Zm-10.75,6.73c-2.94,0-5.33-2.38-5.33-5.32,0-.49,.07-.96,.2-1.41,.42-1.56,1.53-2.83,2.99-3.47,.65-.29,1.38-.45,2.14-.45,2.45,0,4.52,1.66,5.13,3.92,.13,.45,.2,.92,.2,1.41,0,2.94-2.39,5.32-5.33,5.32Z"/></g><g><path d="M270.39,284.85c-.69-5.32-5.24-9.43-10.75-9.43-2.75,0-5.24,1.01-7.15,2.69-1.93,1.69-3.25,4.06-3.6,6.74-.06,.46-.09,.93-.09,1.41,0,5.98,4.85,10.84,10.84,10.84s10.84-4.86,10.84-10.84c0-.48-.03-.95-.09-1.41Zm-10.75,6.73c-2.94,0-5.33-2.38-5.33-5.32,0-.49,.07-.96,.2-1.41,.61-2.26,2.68-3.92,5.13-3.92s4.52,1.66,5.13,3.92c.13,.45,.2,.92,.2,1.41,0,2.94-2.39,5.32-5.33,5.32Z"/><path d="M270.39,284.85c-.69-5.32-5.24-9.43-10.75-9.43-2.75,0-5.24,1.01-7.15,2.69-1.93,1.69-3.25,4.06-3.6,6.74-.06,.46-.09,.93-.09,1.41,0,5.98,4.85,10.84,10.84,10.84s10.84-4.86,10.84-10.84c0-.48-.03-.95-.09-1.41Zm-10.75,6.73c-2.94,0-5.33-2.38-5.33-5.32,0-.49,.07-.96,.2-1.41,.61-2.26,2.68-3.92,5.13-3.92s4.52,1.66,5.13,3.92c.13,.45,.2,.92,.2,1.41,0,2.94-2.39,5.32-5.33,5.32Z"/><path d="M270.39,284.85c-.69-5.32-5.24-9.43-10.75-9.43-2.75,0-5.24,1.01-7.15,2.69-1.93,1.69-3.25,4.06-3.6,6.74-.06,.46-.09,.93-.09,1.41,0,5.98,4.85,10.84,10.84,10.84s10.84-4.86,10.84-10.84c0-.48-.03-.95-.09-1.41Zm-10.75,6.73c-2.94,0-5.33-2.38-5.33-5.32,0-.49,.07-.96,.2-1.41,.61-2.26,2.68-3.92,5.13-3.92s4.52,1.66,5.13,3.92c.13,.45,.2,.92,.2,1.41,0,2.94-2.39,5.32-5.33,5.32Z"/></g></g></g><rect x="149.52" y="214.9" width="130.84" height="49.91" rx="3.76" ry="3.76"/></g></g><g><g><g><path d="M385.16,284.85h-5.62c-.61-2.26-2.67-3.92-5.12-3.92-.77,0-1.49,.16-2.15,.45v-5.75c.7-.14,1.41-.21,2.15-.21,5.5,0,10.06,4.11,10.74,9.43Z"/><path d="M421.02,284.85h-5.62c-.61-2.26-2.67-3.92-5.12-3.92s-4.52,1.66-5.13,3.92h-5.62c.35-2.67,1.67-5.04,3.59-6.73,1.91-1.68,4.41-2.7,7.16-2.7,5.5,0,10.05,4.11,10.74,9.43Z"/><path d="M431,272.27v8.96c0,2-1.62,3.62-3.62,3.62h-3.89c-.7-6.67-6.36-11.88-13.21-11.88-2.63,0-5.09,.77-7.16,2.1-3.32,2.12-5.63,5.68-6.06,9.78h-9.43c-.7-6.67-6.36-11.88-13.21-11.88-.73,0-1.45,.06-2.15,.17v-4.48h55.11c2,0,3.62,1.62,3.62,3.61Z"/><path d="M385.16,284.85h-5.62c-.61-2.26-2.67-3.92-5.12-3.92-.77,0-1.49,.16-2.15,.45-1.45,.64-2.57,1.91-2.98,3.47h-5.62c.6-4.61,4.09-8.31,8.6-9.22,.7-.14,1.41-.21,2.15-.21,5.5,0,10.06,4.11,10.74,9.43Z"/><path d="M403.12,268.66v6.41c-3.32,2.12-5.63,5.68-6.06,9.78h-9.43c-.7-6.67-6.36-11.88-13.21-11.88-.73,0-1.45,.06-2.15,.17-5.86,.96-10.45,5.76-11.07,11.71h-3.89c-2,0-3.62-1.62-3.62-3.62v-8.96c0-1.99,1.62-3.61,3.62-3.61h45.81Z"/><path d="M403.12,278.12v6.73h-3.59c.35-2.67,1.67-5.04,3.59-6.73Z"/></g><g><g><path d="M385.16,284.85c-.68-5.32-5.24-9.43-10.74-9.43-.74,0-1.45,.07-2.15,.21-4.51,.91-8,4.61-8.6,9.22-.06,.46-.09,.93-.09,1.41,0,5.98,4.85,10.84,10.84,10.84s10.84-4.86,10.84-10.84c0-.48-.03-.95-.1-1.41Zm-10.74,6.73c-2.95,0-5.33-2.38-5.33-5.32,0-.49,.07-.96,.2-1.41,.41-1.56,1.53-2.83,2.98-3.47,.66-.29,1.38-.45,2.15-.45,2.45,0,4.51,1.66,5.12,3.92,.13,.45,.2,.92,.2,1.41,0,2.94-2.38,5.32-5.32,5.32Z"/><path d="M385.16,284.85c-.68-5.32-5.24-9.43-10.74-9.43-.74,0-1.45,.07-2.15,.21-4.51,.91-8,4.61-8.6,9.22-.06,.46-.09,.93-.09,1.41,0,5.98,4.85,10.84,10.84,10.84s10.84-4.86,10.84-10.84c0-.48-.03-.95-.1-1.41Zm-10.74,6.73c-2.95,0-5.33-2.38-5.33-5.32,0-.49,.07-.96,.2-1.41,.41-1.56,1.53-2.83,2.98-3.47,.66-.29,1.38-.45,2.15-.45,2.45,0,4.51,1.66,5.12,3.92,.13,.45,.2,.92,.2,1.41,0,2.94-2.38,5.32-5.32,5.32Z"/><path d="M385.16,284.85c-.68-5.32-5.24-9.43-10.74-9.43-.74,0-1.45,.07-2.15,.21-4.51,.91-8,4.61-8.6,9.22-.06,.46-.09,.93-.09,1.41,0,5.98,4.85,10.84,10.84,10.84s10.84-4.86,10.84-10.84c0-.48-.03-.95-.1-1.41Zm-10.74,6.73c-2.95,0-5.33-2.38-5.33-5.32,0-.49,.07-.96,.2-1.41,.41-1.56,1.53-2.83,2.98-3.47,.66-.29,1.38-.45,2.15-.45,2.45,0,4.51,1.66,5.12,3.92,.13,.45,.2,.92,.2,1.41,0,2.94-2.38,5.32-5.32,5.32Z"/></g><g><path d="M421.02,284.85c-.69-5.32-5.24-9.43-10.74-9.43-2.75,0-5.25,1.02-7.16,2.7-1.92,1.69-3.24,4.06-3.59,6.73-.06,.46-.09,.93-.09,1.41,0,5.98,4.85,10.84,10.84,10.84s10.83-4.86,10.83-10.84c0-.48-.03-.95-.09-1.41Zm-10.74,6.73c-2.95,0-5.33-2.38-5.33-5.32,0-.49,.07-.96,.2-1.41,.61-2.26,2.67-3.92,5.13-3.92s4.51,1.66,5.12,3.92c.13,.45,.2,.92,.2,1.41,0,2.94-2.38,5.32-5.32,5.32Z"/><path d="M421.02,284.85c-.69-5.32-5.24-9.43-10.74-9.43-2.75,0-5.25,1.02-7.16,2.7-1.92,1.69-3.24,4.06-3.59,6.73-.06,.46-.09,.93-.09,1.41,0,5.98,4.85,10.84,10.84,10.84s10.83-4.86,10.83-10.84c0-.48-.03-.95-.09-1.41Zm-10.74,6.73c-2.95,0-5.33-2.38-5.33-5.32,0-.49,.07-.96,.2-1.41,.61-2.26,2.67-3.92,5.13-3.92s4.51,1.66,5.12,3.92c.13,.45,.2,.92,.2,1.41,0,2.94-2.38,5.32-5.32,5.32Z"/><path d="M421.02,284.85c-.69-5.32-5.24-9.43-10.74-9.43-2.75,0-5.25,1.02-7.16,2.7-1.92,1.69-3.24,4.06-3.59,6.73-.06,.46-.09,.93-.09,1.41,0,5.98,4.85,10.84,10.84,10.84s10.83-4.86,10.83-10.84c0-.48-.03-.95-.09-1.41Zm-10.74,6.73c-2.95,0-5.33-2.38-5.33-5.32,0-.49,.07-.96,.2-1.41,.61-2.26,2.67-3.92,5.13-3.92s4.51,1.66,5.12,3.92c.13,.45,.2,.92,.2,1.41,0,2.94-2.38,5.32-5.32,5.32Z"/></g></g></g><g><g><path d="M339.28,284.85h-5.62c-.61-2.26-2.67-3.92-5.12-3.92s-4.52,1.66-5.13,3.92h-5.62c.35-2.68,1.67-5.05,3.6-6.74,1.91-1.68,4.4-2.69,7.15-2.69,5.5,0,10.06,4.11,10.74,9.43Z"/><path d="M349.26,272.27v8.96c0,2-1.62,3.62-3.62,3.62h-3.89c-.7-6.67-6.36-11.88-13.21-11.88-2.63,0-5.09,.77-7.15,2.1-3.32,2.12-5.63,5.67-6.06,9.78h-.94v-16.19h31.25c2,0,3.62,1.62,3.62,3.61Z"/><path d="M321.39,268.66v6.41c-3.32,2.12-5.63,5.67-6.06,9.78h-11.56c-1.99,0-3.61-1.62-3.61-3.62v-8.96c0-1.99,1.62-3.61,3.61-3.61h17.62Z"/><path d="M321.39,278.11v6.74h-3.6c.35-2.68,1.67-5.05,3.6-6.74Z"/></g><g><path d="M339.28,284.85c-.68-5.32-5.24-9.43-10.74-9.43-2.75,0-5.24,1.01-7.15,2.69-1.93,1.69-3.25,4.06-3.6,6.74-.06,.46-.09,.93-.09,1.41,0,5.98,4.85,10.84,10.84,10.84s10.84-4.86,10.84-10.84c0-.48-.03-.95-.1-1.41Zm-10.74,6.73c-2.94,0-5.33-2.38-5.33-5.32,0-.49,.07-.96,.2-1.41,.61-2.26,2.68-3.92,5.13-3.92s4.51,1.66,5.12,3.92c.13,.45,.2,.92,.2,1.41,0,2.94-2.38,5.32-5.32,5.32Z"/><path d="M339.28,284.85c-.68-5.32-5.24-9.43-10.74-9.43-2.75,0-5.24,1.01-7.15,2.69-1.93,1.69-3.25,4.06-3.6,6.74-.06,.46-.09,.93-.09,1.41,0,5.98,4.85,10.84,10.84,10.84s10.84-4.86,10.84-10.84c0-.48-.03-.95-.1-1.41Zm-10.74,6.73c-2.94,0-5.33-2.38-5.33-5.32,0-.49,.07-.96,.2-1.41,.61-2.26,2.68-3.92,5.13-3.92s4.51,1.66,5.12,3.92c.13,.45,.2,.92,.2,1.41,0,2.94-2.38,5.32-5.32,5.32Z"/><path d="M339.28,284.85c-.68-5.32-5.24-9.43-10.74-9.43-2.75,0-5.24,1.01-7.15,2.69-1.93,1.69-3.25,4.06-3.6,6.74-.06,.46-.09,.93-.09,1.41,0,5.98,4.85,10.84,10.84,10.84s10.84-4.86,10.84-10.84c0-.48-.03-.95-.1-1.41Zm-10.74,6.73c-2.94,0-5.33-2.38-5.33-5.32,0-.49,.07-.96,.2-1.41,.61-2.26,2.68-3.92,5.13-3.92s4.51,1.66,5.12,3.92c.13,.45,.2,.92,.2,1.41,0,2.94-2.38,5.32-5.32,5.32Z"/></g></g><rect x="300.16" y="214.9" width="130.84" height="49.91" rx="3.76" ry="3.76"/><path d="M296.68,273.99l-12.93-.63c-.54-.03-.97-.47-.97-1.01v-2c0-.54,.43-.99,.97-1.01l12.93-.63c.58-.03,1.06,.43,1.06,1.01v3.26c0,.58-.49,1.04-1.06,1.01Z"/></g></svg>