<?xml version="1.0" encoding="UTF-8"?><svg id="a" xmlns="http://www.w3.org/2000/svg" viewBox="0 0 512 512"><g><g><path d="M187.91,412.82l2.19,2.19h-13.38v-2.11s-2.39-1.21-1.06-4.54c1.33-3.32,3.23-14.12,1.88-22.4-.06-.38-.13-.75-.19-1.12,1.21,.38,2.49,.59,3.82,.59,2.05,0,4.02-.49,5.78-1.39,.26,.13,.53,.26,.8,.37-2.25,6.97-4.49,17.33-1.57,25.4,0,0,2.19,.39,1.72,3.01Z"/><path d="M190.72,376.7s-.15,.32-.41,.91c-.08-.37-.16-.72-.24-1.04l.65,.14Z"/><path d="M190.32,377.61c-.08-.37-.16-.72-.24-1.04l.65,.14s-.15,.32-.41,.91Z"/><path d="M191.1,415.01v-2.11s-2.38-1.21-1.06-4.54c1.33-3.32,3.23-14.12,1.88-22.4-.03-.19-.06-.38-.1-.56,.31,.02,.61,.04,.92,.04,.83,0,1.65-.08,2.46-.25,1.3,.29,2.62,.44,3.94,.44,.91,0,1.8-.07,2.68-.2-2.13,6.93-4.04,16.7-1.25,24.39,0,0,2.19,.39,1.72,3.01l2.19,2.19h-13.38Z"/></g><g><path d="M270.54,412.82l2.19,2.19h-13.38v-2.11s-2.39-1.21-1.06-4.54c1.33-3.32,3.23-14.12,1.88-22.4-.26-1.63-.53-3.11-.79-4.43,.08,0,.17,0,.26-.01,2.35,2.46,5.63,3.92,9.17,3.92,.43,0,.85-.02,1.27-.06-2.14,6.94-4.06,16.73-1.27,24.44,0,0,2.19,.39,1.72,3.01Z"/><path d="M273.36,376.7s-.15,.32-.41,.91c-.08-.37-.16-.72-.24-1.04l.65,.14Z"/><path d="M272.95,377.61c-.08-.37-.16-.72-.24-1.04l.65,.14s-.15,.32-.41,.91Z"/><path d="M273.73,415.01v-2.11s-2.38-1.21-1.06-4.54c1.33-3.32,3.23-14.12,1.88-22.4-.1-.6-.2-1.18-.29-1.75,.33-.16,.65-.33,.97-.52,2.08,1.13,4.42,1.73,6.86,1.73,.83,0,1.64-.07,2.43-.21-2.15,6.94-4.13,16.83-1.31,24.59,0,0,2.19,.39,1.72,3.01l2.19,2.19h-13.38Z"/></g><path d="M190.08,376.56l.65,.14s-.15,.32-.41,.91c-.08-.37-.16-.72-.24-1.04Z"/><path d="M273.36,376.7s-.15,.32-.41,.91c-.08-.37-.16-.72-.24-1.04l.65,.14Z"/><path d="M345.75,281.73c-.77,3.17-1.47,3.64-1.47,3.64,0,0,.47,5.17-3.82,6.69-2.39,.85-7.88,1.21-12.29,1.36,.26,.82,.4,1.7,.4,2.61,0,4.6-3.52,8.37-8,8.78,2.36,1.58,3.92,4.28,3.92,7.34,0,4.21-2.95,7.73-6.89,8.61,1.88,2.62,3,5.84,3,9.31,0,6.97-4.46,12.89-10.69,15.07,.74,1.58,1.16,3.34,1.16,5.2,0,6.79-5.51,12.3-12.3,12.3-.59,0-1.18-.06-1.76-.14-.89,3.27-3.08,6-6.01,7.58,.04,.32,.05,.64,.05,.97,0,4.96-4.02,8.98-8.98,8.98-2.88,0-5.44-1.36-7.08-3.47-1.28,2.08-3.57,3.47-6.19,3.47-3.02,0-5.6-1.84-6.71-4.45-1.18,.37-2.42,.58-3.72,.58-3.89,0-7.36-1.81-9.63-4.63-3.91,2.8-8.69,4.45-13.86,4.45-5.72,0-10.96-2.02-15.07-5.36-1.85,2.03-4.51,3.31-7.47,3.31-.74,0-1.46-.08-2.16-.23-2.15,3.89-6.3,6.53-11.06,6.53-1.37,0-2.7-.23-3.94-.63-.77,.28-1.6,.44-2.47,.44-2.36,0-4.45-1.13-5.78-2.87-1.33,1.74-3.42,2.87-5.78,2.87-4.02,0-7.28-3.26-7.28-7.28,0-1.99,.8-3.79,2.09-5.11-2.84-2.25-4.67-5.73-4.67-9.64,0-2.35,.67-4.54,1.81-6.4-7.39-1.44-12.96-7.94-12.96-15.75,0-5,2.29-9.47,5.89-12.41-1.2-2.05-1.9-4.44-1.9-6.99,0-4.22,1.89-8,4.87-10.54-.41-1.31-.64-2.72-.64-4.17,0-7.66,6.2-13.85,13.85-13.85,1.88,0,3.67,.37,5.3,1.05,2.26-4.58,6.97-7.74,12.43-7.74,3.74,0,7.14,1.49,9.63,3.91,2.51-3.5,6.62-5.78,11.25-5.78,4.87,0,9.16,2.51,11.62,6.32,2.47-3.8,6.75-6.32,11.62-6.32s9.07,2.47,11.55,6.2c1.89-.97,4.03-1.51,6.29-1.51,1.23,0,2.42,.16,3.55,.46,1.25-6.29,6.75-11.04,13.38-11.13,1.25-6.36,6.86-11.16,13.59-11.16,.37,0,.73,.02,1.1,.05,.02-3.59,2.93-6.5,6.53-6.5,.62,0,1.22,.09,1.79,.25,1.26-3.34,4.47-5.71,8.25-5.71,3.08,0,5.79,1.58,7.37,3.98,1.29-.74,2.78-1.16,4.37-1.16,4.87,0,8.82,3.95,8.82,8.82,0,.13-.02,.25-.02,.38,3.43,1.21,5.89,4.47,5.89,8.31,0,.31-.02,.62-.05,.92,3.13,2.36,9.83,7.78,9.25,10.22Z"/></g><g><g><path d="M108.77,272.02l1.7,1.7h-10.4v-1.64s-1.86-.94-.82-3.53c1.03-2.58,2.51-10.98,1.46-17.41-.05-.29-.1-.58-.14-.87,.94,.3,1.94,.46,2.97,.46,1.59,0,3.12-.38,4.49-1.08,.21,.1,.41,.2,.63,.29-1.75,5.41-3.49,13.47-1.22,19.74,0,0,1.7,.3,1.34,2.34Z"/><path d="M110.96,243.94s-.12,.25-.32,.7c-.07-.29-.13-.56-.19-.81l.5,.11Z"/><path d="M110.64,244.64c-.07-.29-.13-.56-.19-.81l.5,.11s-.12,.25-.32,.7Z"/><path d="M111.24,273.72v-1.64s-1.85-.94-.82-3.53c1.04-2.58,2.51-10.98,1.46-17.41-.02-.15-.05-.29-.07-.44,.24,.02,.48,.03,.71,.03,.64,0,1.28-.07,1.91-.19,1.01,.23,2.03,.34,3.06,.34,.7,0,1.4-.05,2.08-.16-1.66,5.39-3.14,12.98-.97,18.96,0,0,1.7,.3,1.34,2.34l1.7,1.7h-10.4Z"/></g><g><path d="M173.01,272.02l1.7,1.7h-10.4v-1.64s-1.86-.94-.82-3.53c1.03-2.58,2.51-10.98,1.46-17.41-.21-1.27-.41-2.42-.61-3.45,.07,0,.14,0,.2,0,1.82,1.91,4.38,3.05,7.13,3.05,.33,0,.66-.01,.98-.05-1.66,5.39-3.16,13.01-.98,19,0,0,1.7,.3,1.34,2.34Z"/><path d="M175.19,243.94s-.12,.25-.32,.7c-.07-.29-.13-.56-.19-.81l.5,.11Z"/><path d="M174.88,244.64c-.07-.29-.13-.56-.19-.81l.5,.11s-.12,.25-.32,.7Z"/><path d="M175.48,273.72v-1.64s-1.85-.94-.82-3.53c1.04-2.58,2.51-10.98,1.46-17.41-.07-.47-.15-.92-.23-1.36,.26-.12,.51-.26,.76-.4,1.61,.88,3.43,1.35,5.33,1.35,.64,0,1.27-.06,1.89-.16-1.67,5.4-3.21,13.08-1.02,19.11,0,0,1.7,.3,1.34,2.34l1.7,1.7h-10.4Z"/></g><path d="M110.45,243.83l.5,.11s-.12,.25-.32,.7c-.07-.29-.13-.56-.19-.81Z"/><path d="M175.19,243.94s-.12,.25-.32,.7c-.07-.29-.13-.56-.19-.81l.5,.11Z"/><path d="M231.47,170.11c-.6,2.46-1.14,2.83-1.14,2.83,0,0,.36,4.02-2.97,5.2-1.86,.66-6.13,.94-9.55,1.06,.2,.64,.31,1.32,.31,2.03,0,3.57-2.73,6.51-6.22,6.83,1.84,1.23,3.05,3.33,3.05,5.7,0,3.27-2.29,6.01-5.36,6.69,1.46,2.04,2.33,4.54,2.33,7.24,0,5.42-3.47,10.02-8.31,11.72,.57,1.23,.9,2.59,.9,4.04,0,5.28-4.28,9.57-9.57,9.57-.46,0-.92-.05-1.37-.11-.69,2.54-2.4,4.66-4.67,5.89,.03,.25,.04,.5,.04,.76,0,3.85-3.12,6.98-6.98,6.98-2.24,0-4.23-1.06-5.5-2.7-.99,1.61-2.78,2.7-4.81,2.7-2.35,0-4.36-1.43-5.21-3.46-.91,.29-1.88,.45-2.89,.45-3.03,0-5.72-1.41-7.49-3.6-3.04,2.17-6.76,3.46-10.78,3.46-4.44,0-8.52-1.57-11.72-4.17-1.44,1.58-3.5,2.57-5.81,2.57-.58,0-1.14-.07-1.68-.18-1.67,3.03-4.9,5.08-8.6,5.08-1.07,0-2.1-.18-3.06-.49-.6,.21-1.24,.34-1.92,.34-1.83,0-3.46-.88-4.49-2.23-1.04,1.35-2.66,2.23-4.5,2.23-3.12,0-5.66-2.54-5.66-5.66,0-1.54,.62-2.95,1.63-3.97-2.21-1.75-3.63-4.45-3.63-7.49,0-1.83,.52-3.53,1.41-4.98-5.75-1.12-10.08-6.17-10.08-12.24,0-3.89,1.78-7.36,4.58-9.65-.93-1.59-1.47-3.45-1.47-5.43,0-3.28,1.47-6.22,3.78-8.19-.32-1.02-.49-2.11-.49-3.24,0-5.95,4.82-10.77,10.76-10.77,1.46,0,2.85,.29,4.12,.82,1.75-3.56,5.42-6.02,9.66-6.02,2.91,0,5.55,1.16,7.49,3.04,1.95-2.72,5.14-4.5,8.75-4.5,3.79,0,7.12,1.95,9.03,4.91,1.92-2.96,5.25-4.91,9.03-4.91s7.05,1.92,8.98,4.82c1.47-.75,3.13-1.18,4.89-1.18,.96,0,1.88,.13,2.76,.36,.97-4.89,5.25-8.58,10.4-8.66,.97-4.94,5.34-8.67,10.56-8.67,.29,0,.57,.01,.85,.04,.01-2.79,2.28-5.06,5.08-5.06,.48,0,.95,.07,1.39,.2,.98-2.59,3.47-4.44,6.41-4.44,2.39,0,4.5,1.23,5.73,3.1,1-.57,2.16-.9,3.4-.9,3.79,0,6.86,3.07,6.86,6.86,0,.1-.01,.2-.01,.29,2.66,.94,4.58,3.47,4.58,6.46,0,.24-.01,.48-.04,.71,2.43,1.84,7.64,6.04,7.19,7.94Z"/></g><g><g><path d="M262.04,241.37l1.7,1.7h-10.4v-1.64s-1.86-.94-.82-3.53c1.03-2.58,2.51-10.98,1.46-17.41-.05-.29-.1-.58-.14-.87,.94,.3,1.94,.46,2.97,.46,1.59,0,3.12-.38,4.49-1.08,.21,.1,.41,.2,.63,.29-1.75,5.41-3.49,13.47-1.22,19.74,0,0,1.7,.3,1.34,2.34Z"/><path d="M264.22,213.3s-.12,.25-.32,.7c-.07-.29-.13-.56-.19-.81l.5,.11Z"/><path d="M263.91,214c-.07-.29-.13-.56-.19-.81l.5,.11s-.12,.25-.32,.7Z"/><path d="M264.51,243.07v-1.64s-1.85-.94-.82-3.53c1.04-2.58,2.51-10.98,1.46-17.41-.02-.15-.05-.29-.07-.44,.24,.02,.48,.03,.71,.03,.64,0,1.28-.07,1.91-.19,1.01,.23,2.03,.34,3.06,.34,.7,0,1.4-.05,2.08-.16-1.66,5.39-3.14,12.98-.97,18.96,0,0,1.7,.3,1.34,2.34l1.7,1.7h-10.4Z"/></g><g><path d="M326.27,241.37l1.7,1.7h-10.4v-1.64s-1.86-.94-.82-3.53c1.03-2.58,2.51-10.98,1.46-17.41-.21-1.27-.41-2.42-.61-3.45,.07,0,.14,0,.2,0,1.82,1.91,4.38,3.05,7.13,3.05,.33,0,.66-.01,.98-.05-1.66,5.39-3.16,13.01-.98,19,0,0,1.7,.3,1.34,2.34Z"/><path d="M328.46,213.3s-.12,.25-.32,.7c-.07-.29-.13-.56-.19-.81l.5,.11Z"/><path d="M328.14,214c-.07-.29-.13-.56-.19-.81l.5,.11s-.12,.25-.32,.7Z"/><path d="M328.75,243.07v-1.64s-1.85-.94-.82-3.53c1.04-2.58,2.51-10.98,1.46-17.41-.07-.47-.15-.92-.23-1.36,.26-.12,.51-.26,.76-.4,1.61,.88,3.43,1.35,5.33,1.35,.64,0,1.27-.06,1.89-.16-1.67,5.4-3.21,13.08-1.02,19.11,0,0,1.7,.3,1.34,2.34l1.7,1.7h-10.4Z"/></g><path d="M263.72,213.19l.5,.11s-.12,.25-.32,.7c-.07-.29-.13-.56-.19-.81Z"/><path d="M328.46,213.3s-.12,.25-.32,.7c-.07-.29-.13-.56-.19-.81l.5,.11Z"/><path d="M384.73,139.46c-.6,2.46-1.14,2.83-1.14,2.83,0,0,.36,4.02-2.97,5.2-1.86,.66-6.13,.94-9.55,1.06,.2,.64,.31,1.32,.31,2.03,0,3.57-2.73,6.51-6.22,6.83,1.84,1.23,3.05,3.33,3.05,5.7,0,3.27-2.29,6.01-5.36,6.69,1.46,2.04,2.33,4.54,2.33,7.24,0,5.42-3.47,10.02-8.31,11.72,.57,1.23,.9,2.59,.9,4.04,0,5.28-4.28,9.57-9.57,9.57-.46,0-.92-.05-1.37-.11-.69,2.54-2.4,4.66-4.67,5.89,.03,.25,.04,.5,.04,.76,0,3.85-3.12,6.98-6.98,6.98-2.24,0-4.23-1.06-5.5-2.7-.99,1.61-2.78,2.7-4.81,2.7-2.35,0-4.36-1.43-5.21-3.46-.91,.29-1.88,.45-2.89,.45-3.03,0-5.72-1.41-7.49-3.6-3.04,2.17-6.76,3.46-10.78,3.46-4.44,0-8.52-1.57-11.72-4.17-1.44,1.58-3.5,2.57-5.81,2.57-.58,0-1.14-.07-1.68-.18-1.67,3.03-4.9,5.08-8.6,5.08-1.07,0-2.1-.18-3.06-.49-.6,.21-1.24,.34-1.92,.34-1.83,0-3.46-.88-4.49-2.23-1.04,1.35-2.66,2.23-4.5,2.23-3.12,0-5.66-2.54-5.66-5.66,0-1.54,.62-2.95,1.63-3.97-2.21-1.75-3.63-4.45-3.63-7.49,0-1.83,.52-3.53,1.41-4.98-5.75-1.12-10.08-6.17-10.08-12.24,0-3.89,1.78-7.36,4.58-9.65-.93-1.59-1.47-3.45-1.47-5.43,0-3.28,1.47-6.22,3.78-8.19-.32-1.02-.49-2.11-.49-3.24,0-5.95,4.82-10.77,10.76-10.77,1.46,0,2.85,.29,4.12,.82,1.75-3.56,5.42-6.02,9.66-6.02,2.91,0,5.55,1.16,7.49,3.04,1.95-2.72,5.14-4.5,8.75-4.5,3.79,0,7.12,1.95,9.03,4.91,1.92-2.96,5.25-4.91,9.03-4.91s7.05,1.92,8.98,4.82c1.47-.75,3.13-1.18,4.89-1.18,.96,0,1.88,.13,2.76,.36,.97-4.89,5.25-8.58,10.4-8.66,.97-4.94,5.34-8.67,10.56-8.67,.29,0,.57,.01,.85,.04,.01-2.79,2.28-5.06,5.08-5.06,.48,0,.95,.07,1.39,.2,.98-2.59,3.47-4.44,6.41-4.44,2.39,0,4.5,1.23,5.73,3.1,1-.57,2.16-.9,3.4-.9,3.79,0,6.86,3.07,6.86,6.86,0,.1-.01,.2-.01,.29,2.66,.94,4.58,3.47,4.58,6.46,0,.24-.01,.48-.04,.71,2.43,1.84,7.64,6.04,7.19,7.94Z"/></g></svg>